# xmcd
#
# Track frame offsets:
#  150
#  16793
#  32939
#  49442
#  67046
#  86402
#  111099
#  135222
#  152237
#  171397
#  183083
#  208664
#  220931
#  236224
#  255287
#
# Disc length: 3662 seconds
#
# Revision: 0
# Processed by: cddbd v1.5.1PL0 Copyright (c) Steve Scherf et al.
# Submitted via: Collectorz.com_Music_Collector 6.9
#
DISCID=ce0e4c0f
DTITLE=Lonnie Brooks - Deluxe Edition
DYEAR=1997
DGENRE=Blues
TTITLE0=Jealous Man
TTITLE1=Something You Got
TTITLE2=Temporary Insanity
TTITLE3=End of the Rope
TTITLE4=Don't Take Advantage of Me
TTITLE5=You Know What My Body Needs
TTITLE6=In The Dark
TTITLE7=Hoodoo She Do
TTITLE8=Figure Head
TTITLE9=One More Shot
TTITLE10=Cold Lonely Nights
TTITLE11=Zydeco
TTITLE12=Family Rules
TTITLE13=Roll Of The Tumbling Dice
TTITLE14=Like Father, Like Son
EXTD=
EXTT0=
EXTT1=
EXTT2=
EXTT3=
EXTT4=
EXTT5=
EXTT6=
EXTT7=
EXTT8=
EXTT9=
EXTT10=
EXTT11=
EXTT12=
EXTT13=
EXTT14=
PLAYORDER=
